<svg width="21" height="20" viewBox="0 0 21 20" fill="none" xmlns="http://www.w3.org/2000/svg">
<mask id="path-1-inside-1_1_52" fill="white">
<path d="M19.8659 8.36753C20.2407 10.633 19.8245 12.9585 18.687 14.9533C17.5496 16.9482 15.7603 18.4907 13.6197 19.3219C11.479 20.1531 9.1176 20.2223 6.93203 19.5177C4.74646 18.8132 2.86993 17.378 1.61771 15.4532C0.36549 13.5284 -0.186129 11.2312 0.0555282 8.94763C0.297185 6.66407 1.31739 4.53325 2.94475 2.91314C4.57212 1.29304 6.70748 0.282369 8.9921 0.0509231C11.2767 -0.180523 13.5714 0.381359 15.4906 1.64217L14.5959 3.0041C12.9894 1.94873 11.0687 1.47841 9.15634 1.67214C7.244 1.86588 5.4566 2.71186 4.09442 4.06796C2.73224 5.42407 1.87828 7.20767 1.676 9.11912C1.47372 11.0306 1.93545 12.9534 2.98362 14.5646C4.03179 16.1758 5.60253 17.3771 7.43196 17.9668C9.26139 18.5565 11.238 18.4986 13.0298 17.8029C14.8216 17.1072 16.3194 15.8159 17.2715 14.1462C18.2236 12.4764 18.572 10.5299 18.2582 8.63354L19.8659 8.36753Z"/>
</mask>
<path d="M19.8659 8.36753C20.2407 10.633 19.8245 12.9585 18.687 14.9533C17.5496 16.9482 15.7603 18.4907 13.6197 19.3219C11.479 20.1531 9.1176 20.2223 6.93203 19.5177C4.74646 18.8132 2.86993 17.378 1.61771 15.4532C0.36549 13.5284 -0.186129 11.2312 0.0555282 8.94763C0.297185 6.66407 1.31739 4.53325 2.94475 2.91314C4.57212 1.29304 6.70748 0.282369 8.9921 0.0509231C11.2767 -0.180523 13.5714 0.381359 15.4906 1.64217L14.5959 3.0041C12.9894 1.94873 11.0687 1.47841 9.15634 1.67214C7.244 1.86588 5.4566 2.71186 4.09442 4.06796C2.73224 5.42407 1.87828 7.20767 1.676 9.11912C1.47372 11.0306 1.93545 12.9534 2.98362 14.5646C4.03179 16.1758 5.60253 17.3771 7.43196 17.9668C9.26139 18.5565 11.238 18.4986 13.0298 17.8029C14.8216 17.1072 16.3194 15.8159 17.2715 14.1462C18.2236 12.4764 18.572 10.5299 18.2582 8.63354L19.8659 8.36753Z" stroke="#ECECEC" stroke-width="2" mask="url(#path-1-inside-1_1_52)"/>
<path d="M7 9.5L11 12.5L19.5 3" stroke="#ECECEC" stroke-width="2"/>
</svg>
