<svg width="50" height="50" viewBox="0 0 50 50" fill="none" xmlns="http://www.w3.org/2000/svg">
<path d="M41.7969 0H8.20312C6.02752 0 3.94102 0.864256 2.40264 2.40264C0.864256 3.94102 0 6.02752 0 8.20312L0 41.7969C0 43.9725 0.864256 46.059 2.40264 47.5974C3.94102 49.1357 6.02752 50 8.20312 50H41.7969C43.9725 50 46.059 49.1357 47.5974 47.5974C49.1357 46.059 50 43.9725 50 41.7969V8.20312C50 6.02752 49.1357 3.94102 47.5974 2.40264C46.059 0.864256 43.9725 0 41.7969 0ZM30.0781 37.5H19.9219L21.6406 24.1406C20.2755 23.3869 19.1997 22.2009 18.5823 20.7689C17.965 19.337 17.8411 17.7405 18.2303 16.2305C18.6194 14.7205 19.4995 13.3827 20.7321 12.4275C21.9646 11.4723 23.4797 10.954 25.0391 10.954C26.5984 10.954 28.1135 11.4723 29.3461 12.4275C30.5786 13.3827 31.4587 14.7205 31.8478 16.2305C32.237 17.7405 32.1131 19.337 31.4958 20.7689C30.8784 22.2009 29.8026 23.3869 28.4375 24.1406L30.0781 37.5Z" fill="white"/>
</svg>
