<svg width="45" height="45" viewBox="0 0 45 45" fill="none" xmlns="http://www.w3.org/2000/svg">
<g clip-path="url(#clip0_1_194)">
<path d="M26.9032 19.2244C27.343 19.4594 27.6961 19.8289 27.9112 20.2788C28.1262 20.7287 28.1918 21.2355 28.0985 21.7254C27.8271 23.1654 26.2943 24.2433 23.9072 24.7369V19.0416C22.9699 19.0795 22.0284 19.0838 21.0947 19.0549V24.7495C18.6808 24.2573 17.1297 23.178 16.8562 21.7261C16.7629 21.2362 16.8285 20.7294 17.0435 20.2795C17.2586 19.8296 17.6117 19.4601 18.0515 19.2251C18.2063 19.1465 18.339 19.0305 18.4375 18.8876C17.5162 18.7978 16.5989 18.6714 15.6876 18.5086C15.2865 19.0099 14.9983 19.5918 14.8425 20.2147C14.6867 20.8375 14.667 21.4866 14.7848 22.1177C15.0112 23.3208 16.0912 26.044 21.0961 26.8934V31.7084C19.5443 31.2626 18.6576 30.4849 18.3539 29.8451C18.2559 29.6646 18.2098 29.4606 18.2208 29.2556C18.2317 29.0505 18.2992 28.8525 18.4157 28.6835C18.4916 28.5675 18.5439 28.4378 18.5696 28.3016C18.5953 28.1654 18.5939 28.0255 18.5655 27.8899C18.5372 27.7542 18.4823 27.6255 18.4042 27.511C18.3261 27.3966 18.2262 27.2986 18.1102 27.2228C17.9943 27.1469 17.8645 27.0947 17.7283 27.069C17.5921 27.0433 17.4522 27.0446 17.3166 27.073C17.181 27.1014 17.0522 27.1562 16.9378 27.2343C16.8233 27.3124 16.7254 27.4123 16.6495 27.5283C16.3378 27.9999 16.155 28.545 16.1192 29.1092C16.0835 29.6734 16.196 30.2371 16.4456 30.7444C17.0026 31.8065 17.8992 32.6515 18.9923 33.1448C18.512 33.4506 18.1188 33.8752 17.8509 34.3776C17.5829 34.8799 17.4493 35.443 17.463 36.0122C17.5467 37.5232 18.8299 39.1095 21.0932 39.5827V40.8363C20.9193 40.6273 20.6712 40.4935 20.401 40.463C20.1307 40.4325 19.8591 40.5075 19.6429 40.6725C19.4267 40.8375 19.2825 41.0796 19.2405 41.3483C19.1986 41.617 19.2621 41.8916 19.4177 42.1146C19.8659 42.6911 20.439 43.1585 21.0939 43.4815V43.5933C21.0939 43.9662 21.2421 44.3239 21.5058 44.5877C21.7696 44.8514 22.1272 44.9995 22.5002 44.9995C22.8732 44.9995 23.2308 44.8514 23.4946 44.5877C23.7583 44.3239 23.9064 43.9662 23.9064 43.5933V43.4752C25.3914 42.7017 26.3674 41.2835 26.1993 39.9427C26.1433 39.5321 25.979 39.1438 25.7233 38.8177C26.1761 38.5289 26.5695 38.1561 26.8821 37.7194C27.185 37.3061 27.3822 36.825 27.4567 36.318C27.5312 35.811 27.4807 35.2935 27.3096 34.8105C27.2131 34.548 27.0162 34.3345 26.7623 34.2171C26.5084 34.0997 26.2183 34.0879 25.9557 34.1844C25.6931 34.2809 25.4797 34.4778 25.3622 34.7317C25.2448 34.9856 25.2331 35.2757 25.3296 35.5383C25.382 35.7027 25.3932 35.8775 25.3623 36.0473C25.3314 36.2171 25.2593 36.3767 25.1524 36.5121C24.8341 36.9201 24.3997 37.2221 23.9064 37.3784V33.8691C26.1185 33.3621 27.7989 32.2441 28.507 30.743C28.7569 30.2357 28.8694 29.6718 28.8334 29.1075C28.7974 28.5432 28.614 27.9982 28.3017 27.5269C27.8817 26.9181 27.3202 26.4203 26.6655 26.0763C29.2994 24.8972 29.9941 23.0529 30.1699 22.117C30.2909 21.4686 30.2666 20.8015 30.099 20.1636C29.9313 19.5257 29.6244 18.9329 29.2003 18.4277C28.304 18.6091 27.4001 18.7499 26.4911 18.8496C26.592 19.0096 26.7344 19.1391 26.9032 19.2244ZM21.0939 37.3882C20.1679 37.0711 19.6012 36.4706 19.5696 35.8941C19.5407 35.3745 20.0224 34.7986 21.0939 34.4252V37.3882ZM26.5987 29.8437C26.2999 30.4765 25.4294 31.2499 23.9064 31.695V27.3012C24.4719 27.4158 25.0204 27.6025 25.5384 27.8566C25.9345 28.0445 26.2776 28.3279 26.5368 28.6814C26.6531 28.8505 26.7204 29.0485 26.7313 29.2535C26.7423 29.4584 26.6964 29.6624 26.5987 29.843V29.8437Z" fill="#F8992F"/>
<path d="M23.9062 17.5409C25.4851 17.4738 27.0552 17.2717 28.5996 16.9369L26.1872 14.5597C26.0591 14.427 25.9882 14.2494 25.9898 14.0651C25.9914 13.8807 26.0654 13.7044 26.1957 13.574C26.3261 13.4436 26.5025 13.3697 26.6868 13.3681C26.8712 13.3665 27.0488 13.4374 27.1814 13.5654L30.1936 16.534C31.6321 16.1183 33.0267 15.5632 34.3575 14.8768L29.8828 12.5825C29.8002 12.5411 29.7266 12.484 29.6661 12.4142C29.6056 12.3444 29.5594 12.2634 29.5302 12.1758C29.5011 12.0881 29.4894 11.9956 29.496 11.9035C29.5025 11.8114 29.5272 11.7215 29.5685 11.6389C29.6098 11.5563 29.667 11.4826 29.7368 11.4221C29.8066 11.3616 29.8876 11.3155 29.9752 11.2863C30.0628 11.2571 30.1553 11.2455 30.2475 11.252C30.3396 11.2586 30.4295 11.2833 30.5121 11.3246L35.8193 14.0471C36.7688 13.461 37.6732 12.8048 38.5249 12.084L33.428 9.78403C33.3436 9.74649 33.2674 9.69271 33.2038 9.62573C33.1402 9.55876 33.0904 9.47991 33.0573 9.39369C33.0241 9.30748 33.0083 9.21558 33.0107 9.12324C33.0131 9.03091 33.0336 8.93995 33.0711 8.85555C33.1087 8.77116 33.1625 8.69498 33.2294 8.63138C33.2964 8.56777 33.3752 8.51798 33.4615 8.48484C33.5477 8.45171 33.6396 8.43588 33.7319 8.43826C33.8242 8.44064 33.9152 8.46118 33.9996 8.49872L39.6619 11.0539C40.4704 10.2686 41.2223 9.42692 41.9119 8.53528L37.1306 7.72809C37.0371 7.71752 36.9467 7.6883 36.8647 7.64216C36.7828 7.59601 36.7109 7.53388 36.6533 7.45945C36.5958 7.38502 36.5538 7.2998 36.5298 7.20883C36.5058 7.11787 36.5003 7.02301 36.5136 6.92988C36.5269 6.83675 36.5588 6.74724 36.6073 6.66665C36.6558 6.58606 36.7201 6.51603 36.7962 6.46071C36.8722 6.40539 36.9587 6.3659 37.0503 6.34458C37.1419 6.32326 37.2369 6.32055 37.3296 6.33661L42.8358 7.26614C43.3184 6.55584 43.7643 5.82128 44.1717 5.06536C44.2579 4.90593 44.301 4.72673 44.2965 4.54554C44.2921 4.36435 44.2403 4.18748 44.1464 4.03247C44.0528 3.87462 43.9197 3.74391 43.7601 3.65328C43.6005 3.56264 43.4201 3.51521 43.2366 3.51567H29.2275C28.9647 3.51325 28.7106 3.60948 28.5153 3.78536C28.32 3.96125 28.1978 4.20397 28.1728 4.46559C28.0413 5.87114 27.2208 9.14067 22.5 9.14067C17.7792 9.14067 16.9587 5.87114 16.8251 4.46489C16.8 4.20376 16.678 3.96151 16.4832 3.78582C16.2884 3.61014 16.0348 3.51376 15.7725 3.51567H1.76343C1.58001 3.51487 1.39955 3.56193 1.23986 3.65219C1.08018 3.74245 0.9468 3.87279 0.852887 4.03036C0.759201 4.18535 0.707645 4.36213 0.703329 4.54318C0.699012 4.72423 0.742085 4.90327 0.828277 5.06254C1.15523 5.67075 1.54546 6.33379 2.0032 7.02497L7.63523 6.33309C7.72793 6.31704 7.82291 6.31975 7.91454 6.34106C8.00617 6.36238 8.09259 6.40187 8.16869 6.45719C8.24478 6.51251 8.309 6.58254 8.35754 6.66313C8.40608 6.74372 8.43795 6.83324 8.45127 6.92637C8.46459 7.0195 8.45908 7.11436 8.43507 7.20532C8.41107 7.29628 8.36905 7.38151 8.31151 7.45594C8.25397 7.53037 8.18208 7.5925 8.1001 7.63864C8.01811 7.68478 7.9277 7.71401 7.83422 7.72458L2.92781 8.32715C3.65001 9.28079 4.44279 10.1789 5.29945 11.0138L10.9645 8.4959C11.135 8.4201 11.3285 8.41511 11.5027 8.48203C11.6768 8.54895 11.8172 8.6823 11.893 8.85274C11.9688 9.02318 11.9738 9.21676 11.9069 9.39088C11.84 9.565 11.7066 9.70541 11.5362 9.78122L6.435 12.0502C7.23651 12.733 8.08518 13.3585 8.97468 13.9219L14.4513 11.3274C14.5339 11.2861 14.6238 11.2614 14.716 11.2549C14.8081 11.2483 14.9006 11.2599 14.9882 11.2891C15.0758 11.3183 15.1568 11.3645 15.2266 11.425C15.2964 11.4854 15.3536 11.5591 15.3949 11.6417C15.4362 11.7243 15.4609 11.8142 15.4675 11.9063C15.474 11.9984 15.4624 12.091 15.4332 12.1786C15.404 12.2662 15.3579 12.3472 15.2974 12.417C15.2369 12.4868 15.1632 12.544 15.0806 12.5853L10.4519 14.7776C11.8389 15.5106 13.2973 16.0996 14.8043 16.5354L17.7848 13.5675C17.9174 13.4395 18.0951 13.3686 18.2794 13.3702C18.4638 13.3718 18.6401 13.4457 18.7705 13.5761C18.9009 13.7065 18.9748 13.8828 18.9764 14.0672C18.978 14.2515 18.9071 14.4292 18.7791 14.5618L16.3934 16.9376C17.94 17.2726 19.5126 17.4744 21.0937 17.5409H23.9062Z" fill="#F8992F"/>
<path d="M22.5 7.03125C24.4416 7.03125 26.0156 5.45725 26.0156 3.51562C26.0156 1.574 24.4416 0 22.5 0C20.5584 0 18.9844 1.574 18.9844 3.51562C18.9844 5.45725 20.5584 7.03125 22.5 7.03125Z" fill="#F8992F"/>
</g>
<defs>
<clipPath id="clip0_1_194">
<rect width="45" height="45" fill="white"/>
</clipPath>
</defs>
</svg>
