<svg width="37" height="45" viewBox="0 0 37 45" fill="none" xmlns="http://www.w3.org/2000/svg">
<path d="M36.2363 4.09194L18.6582 0.0356071C18.5541 0.0115685 18.4459 0.0115685 18.3418 0.0356071L0.76368 4.09194C0.608228 4.12783 0.469606 4.21553 0.370581 4.34062C0.271557 4.46571 0.218017 4.62076 0.218758 4.78029V18.326C0.337883 24.0156 2.09974 29.5494 5.29204 34.2605C8.48433 38.9717 12.9709 42.6592 18.211 44.8788C18.3013 44.9168 18.3982 44.9363 18.4961 44.9363C18.5941 44.9363 18.691 44.9168 18.7813 44.8788C24.0222 42.6595 28.5098 38.9723 31.7034 34.2612C34.897 29.5501 36.6604 24.0162 36.7813 18.326V4.78029C36.782 4.62076 36.7285 4.46571 36.6294 4.34062C36.5304 4.21553 36.3918 4.12783 36.2363 4.09194ZM18.5 30.2334C12.7112 26.1708 9.35938 22.1081 9.35938 18.0455C9.34399 16.8179 9.81684 15.6345 10.6739 14.7555C11.531 13.8765 12.7021 13.374 13.9297 13.3584C14.9168 13.3616 15.8802 13.6612 16.6951 14.2183C17.51 14.7755 18.1388 15.5645 18.5 16.4831C18.8612 15.5645 19.49 14.7755 20.3049 14.2183C21.1198 13.6612 22.0832 13.3616 23.0703 13.3584C24.2979 13.374 25.469 13.8765 26.3261 14.7555C27.1832 15.6345 27.656 16.8179 27.6406 18.0455C27.6406 22.1081 24.2888 26.1708 18.5 30.2334Z" fill="#F8992F"/>
</svg>
