<svg width="45" height="45" viewBox="0 0 45 45" fill="none" xmlns="http://www.w3.org/2000/svg">
<g clip-path="url(#clip0_1_170)">
<path d="M11.9534 4.21875C6.06477 4.21875 0.0136719 9.52383 0.0136719 19.9688C0.0136719 30.4137 7.02664 32.3438 9.84406 32.3438C12.6615 32.3438 14.7659 30.9375 14.7659 26.7188C14.7659 24.2578 12.6158 22.3383 12.0758 21.8939C12.0665 21.8849 12.0599 21.8736 12.0567 21.8612C12.0535 21.8487 12.0537 21.8356 12.0574 21.8232C12.0611 21.8109 12.0681 21.7998 12.0777 21.7912C12.0872 21.7826 12.099 21.7768 12.1116 21.7744C12.7051 21.6731 14.7659 21.1641 14.7659 18.9844C14.7487 18.3966 14.5611 17.8264 14.226 17.3433C13.8908 16.8601 13.4226 16.4846 12.878 16.2626C12.8656 16.2559 12.8554 16.2456 12.8488 16.2331C12.8423 16.2205 12.8397 16.2063 12.8414 16.1923C12.843 16.1782 12.8489 16.165 12.8582 16.1543C12.8675 16.1437 12.8798 16.1361 12.8935 16.1325C13.9623 15.9335 18.2816 14.8598 18.2816 10.5469C18.2816 7.03125 16.7347 4.21875 11.9534 4.21875ZM33.0605 4.21875C38.9492 4.21875 45.0003 9.52383 45.0003 19.9688C45.0003 30.4137 37.9873 32.3438 35.1699 32.3438C32.3525 32.3438 30.248 30.9375 30.248 26.7188C30.248 24.2578 32.3982 22.3383 32.9382 21.8939C32.9474 21.8849 32.954 21.8736 32.9573 21.8612C32.9605 21.8487 32.9603 21.8356 32.9566 21.8232C32.9529 21.8109 32.9459 21.7998 32.9363 21.7912C32.9267 21.7826 32.915 21.7768 32.9023 21.7744C32.3089 21.6731 30.248 21.1655 30.248 18.9844C30.265 18.3969 30.4522 17.827 30.7868 17.3438C31.1214 16.8607 31.5891 16.4851 32.1331 16.2626C32.1456 16.2559 32.1558 16.2456 32.1623 16.2331C32.1689 16.2205 32.1715 16.2063 32.1698 16.1923C32.1681 16.1782 32.1623 16.165 32.153 16.1543C32.1437 16.1437 32.1314 16.1361 32.1177 16.1325C31.0489 15.9328 26.7296 14.8591 26.7296 10.5462C26.7324 7.03125 28.2814 4.21875 33.0605 4.21875Z" fill="#F8992F"/>
<path d="M28.8415 18.9844C28.8415 18.9647 28.845 18.9464 28.8457 18.9267H28.8288C26.8397 18.5899 24.6101 16.8483 24.6101 14.767V1.40625H20.3906V14.7656C20.3906 16.8469 18.1603 18.5885 16.1719 18.9253C16.1719 18.945 16.1761 18.964 16.1761 18.9844C16.188 19.5039 16.0956 20.0205 15.9041 20.5037C15.7127 20.9868 15.4262 21.4265 15.0616 21.7969H16.1719C17.2897 21.8002 18.3609 22.2458 19.1513 23.0362C19.9417 23.8267 20.3873 24.8978 20.3906 26.0156V41.4844H24.6094V26.0156C24.6127 24.8978 25.0583 23.8267 25.8487 23.0362C26.6392 22.2458 27.7103 21.8002 28.8281 21.7969H29.9531C29.5891 21.4263 29.3031 20.9864 29.1122 20.5033C28.9212 20.0202 28.8292 19.5037 28.8415 18.9844Z" fill="#F8992F"/>
</g>
<defs>
<clipPath id="clip0_1_170">
<rect width="45" height="45" fill="white"/>
</clipPath>
</defs>
</svg>
